<?xml version="1.0" encoding="utf-8"?>
<!-- Generator: Adobe Illustrator 22.1.0, SVG Export Plug-In . SVG Version: 6.00 Build 0)  -->
<svg version="1.1" id="Livello_1" xmlns="http://www.w3.org/2000/svg" xmlns:xlink="http://www.w3.org/1999/xlink" x="0px" y="0px"
	 viewBox="0 0 520 352" style="enable-background:new 0 0 520 352;" xml:space="preserve">
<style type="text/css">
	.st0{opacity:0.22;fill:url(#SVGID_1_);}
	.st1{opacity:0.22;fill:url(#SVGID_2_);}
	.st2{opacity:0.22;fill:url(#SVGID_3_);}
	.st3{fill:#94D1FF;}
	.st4{fill:#6F9CBF;}
	.st5{fill:#BC2A77;}
	.st6{fill:#601438;}
	.st7{fill:#6DC54A;}
	.st8{fill:#FEC652;}
	.st9{fill:#263642;}
</style>
<linearGradient id="SVGID_1_" gradientUnits="userSpaceOnUse" x1="349.7714" y1="413.8436" x2="146.0518" y2="60.991">
	<stop  offset="1.181402e-03" style="stop-color:#6F9CBF;stop-opacity:0"/>
	<stop  offset="6.840549e-02" style="stop-color:#5F86A4;stop-opacity:6.730360e-02"/>
	<stop  offset="0.1624" style="stop-color:#4E6E86;stop-opacity:0.1614"/>
	<stop  offset="0.2663" style="stop-color:#3F596D;stop-opacity:0.2654"/>
	<stop  offset="0.3819" style="stop-color:#34495A;stop-opacity:0.3812"/>
	<stop  offset="0.5158" style="stop-color:#2C3E4C;stop-opacity:0.5152"/>
	<stop  offset="0.6844" style="stop-color:#273844;stop-opacity:0.684"/>
	<stop  offset="1" style="stop-color:#263642"/>
</linearGradient>
<polygon class="st0" points="96.2,132.3 221.9,18.6 237.9,22.8 240.9,6.2 478.9,241.3 478.9,339.3 286.6,339.3 94.4,335.6 
	48.1,287.5 110.1,288.5 112.9,157.7 "/>
<linearGradient id="SVGID_2_" gradientUnits="userSpaceOnUse" x1="357.2494" y1="446.4805" x2="156.1542" y2="98.1734">
	<stop  offset="1.181402e-03" style="stop-color:#6F9CBF;stop-opacity:0"/>
	<stop  offset="1" style="stop-color:#263642"/>
</linearGradient>
<polygon class="st1" points="50,291.2 111,352.2 520.5,352.2 228.4,56.5 123.9,172.9 123.9,275.5 "/>
<linearGradient id="SVGID_3_" gradientUnits="userSpaceOnUse" x1="438.7264" y1="289.1288" x2="266.602" y2="-8.9994">
	<stop  offset="1.181402e-03" style="stop-color:#6F9CBF;stop-opacity:0"/>
	<stop  offset="1" style="stop-color:#263642"/>
</linearGradient>
<polygon class="st2" points="241.9,5.3 468.7,232.1 468.7,271.8 222.8,24.1 222.8,24.1 237.6,18.6 "/>
<path class="st3" d="M114.7,174.3h9.8L224.6,58H114.1h1.2H4.7l100.2,116.3H114.7z"/>
<path class="st4" d="M203.9,58l-99.6,115.6l0.6,0.7h19.6L224.6,58H203.9z"/>
<path class="st3" d="M124.5,253.6v-79.3h-19.6v79.3c0,4.3-2.4,8.3-6.3,10.3l-46.1,23.3h124.4l-46.1-23.3
	C126.9,261.9,124.5,257.9,124.5,253.6z"/>
<path class="st4" d="M115.8,189.8v65.1c0,7.4,4.2,14.1,10.7,17.5l29.1,14.7h21.2l-46.1-23.3c-3.9-2-6.3-5.9-6.3-10.3v-79.3h-19.6
	v9.8h5.2C113.2,184.1,115.8,186.7,115.8,189.8z"/>
<path class="st5" d="M28,85l76.9,89.2h19.6L201.3,85H28z"/>
<path class="st6" d="M180.6,85l-76.3,88.6l0.6,0.7h19.6L201.3,85H180.6z"/>
<path class="st7" d="M138.1,106.5c-9-9-22.3-10.3-29.7-2.9c-7.4,7.4-6.1,20.7,2.9,29.7c9,9,22.3,10.3,29.7,2.8
	C148.3,128.8,147.1,115.5,138.1,106.5z"/>
<path class="st8" d="M138.1,106.5c-9-9-22.3-10.3-29.7-2.9c-7.4,7.4-6.1,20.7,2.9,29.7c9,9,22.3,10.3,29.7,2.8
	C148.3,128.8,147.1,115.5,138.1,106.5z"/>
<path class="st9" d="M231-0.5c-7.8,0-14.1,6.3-14.1,14.1c0,2.3,0.6,4.5,1.6,6.4l-33.6,33.6H76.3c-2.4,0-4.3,1.9-4.3,4.3
	c0,2.4,1.9,4.3,4.3,4.3h99.9l-18.4,18.4H30L14.1,62.3h42.1c2.4,0,4.3-1.9,4.3-4.3c0-2.4-1.9-4.3-4.3-4.3H4.7c-1.7,0-3.2,1-3.9,2.5
	c-0.7,1.5-0.4,3.3,0.7,4.6l99.1,115.1v20.6c0,2.4,1.9,4.3,4.3,4.3c2.4,0,4.3-1.9,4.3-4.3v-17.9h10.9v75c0,6,3.3,11.4,8.7,14.1
	l29.9,15.1H70.6l29.9-15.1c5.4-2.7,8.7-8.1,8.7-14.1v-37c0-2.4-1.9-4.3-4.3-4.3c-2.4,0-4.3,1.9-4.3,4.3v37c0,2.7-1.5,5.2-4,6.4
	l-46.1,23.3c-1.8,0.9-2.7,2.9-2.3,4.9s2.2,3.3,4.2,3.3h124.4c2,0,3.7-1.4,4.2-3.3c0.5-1.9-0.5-4-2.3-4.9L132.7,260
	c-2.4-1.2-4-3.7-4-6.4v-77.7l35.7-41.4c1.6-1.8,1.4-4.5-0.5-6.1c-1.8-1.6-4.5-1.4-6.1,0.5L122.5,170h-15.6L37.4,89.4h111.7
	l-11.3,11.3c-5.1-3.9-11.2-6.1-17.3-6.1c-5.9,0-11.4,2.2-15.3,6.1c-8.2,8.2-8,22.1,0,32.6l-11.1,11.1c-1.5,1.5-1.7,4-0.3,5.7
	c1.6,2,4.6,2.2,6.4,0.4l11.1-11.1c5.1,3.9,11.2,6.1,17.3,6.1c5.9,0,11.4-2.2,15.3-6.1c8.2-8.2,8-22.1,0-32.6l17.4-17.4h30.5
	l-20.6,24c-1.4,1.6-1.4,4.2,0.1,5.8c1.7,1.9,4.8,1.8,6.4-0.1l50.1-58.2c1.1-1.3,1.4-3.1,0.7-4.6c-0.7-1.5-2.2-2.5-3.9-2.5h-27.6
	l27.5-27.5c1.9,1,4.1,1.6,6.4,1.6c7.8,0,14.1-6.3,14.1-14.1C245.1,5.9,238.7-0.5,231-0.5z M137.9,133.2c-2.9,2.9-6.6,3.6-9.2,3.6
	c-5.1,0-10.3-2.3-14.4-6.4c0,0,0,0,0,0c0,0,0,0,0,0c-7.3-7.3-8.5-17.9-2.8-23.6c2.9-2.9,6.6-3.6,9.2-3.6c5.1,0,10.3,2.3,14.4,6.4
	C142.3,116.9,143.6,127.5,137.9,133.2z M215.2,62.3l-15.9,18.4H170l18.4-18.4H215.2z M231,19.1c-3,0-5.5-2.5-5.5-5.5
	c0-3,2.5-5.5,5.5-5.5c3,0,5.5,2.5,5.5,5.5C236.4,16.7,234,19.1,231,19.1z"/>
</svg>
