<?xml version="1.0" encoding="utf-8"?>
<!-- Generator: Adobe Illustrator 22.1.0, SVG Export Plug-In . SVG Version: 6.00 Build 0)  -->
<svg version="1.1" id="Livello_1" xmlns="http://www.w3.org/2000/svg" xmlns:xlink="http://www.w3.org/1999/xlink" x="0px" y="0px"
	 viewBox="0 0 184.2 130" style="enable-background:new 0 0 184.2 130;" xml:space="preserve">
<style type="text/css">
	.st0{fill:#FFFFFF;}
	.st1{fill:#6F9CBF;}
	.st2{fill:#601438;}
</style>
<title>image-logo</title>
<g>
	<g>
		<path class="st0" d="M9.1,88.9l159.8,40.6c9.6,2.4,18-6.7,14.5-15.6L140.7,7.5c-2.7-6.7-11-9.6-17.5-5.9L6.1,67.4
			C-3.3,72.6-1.4,86.2,9.1,88.9z"/>
		<path class="st1" d="M33.1,78.8l114.4,36.5c6.9,2.2,13.4-4.1,11.2-10.7l-26.1-79.3c-1.7-5-7.6-7.4-12.4-5.1L31.9,63
			C24.8,66.4,25.6,76.4,33.1,78.8z"/>
		<path class="st2" d="M130,44.8c-0.5-8.3-9.8-13.3-17.4-9.4l-45,23c-9,4.6-8.2,17.3,1.3,20.8l47.6,17.5c8.1,3,16.6-3.1,16.1-11.4
			L130,44.8z"/>
	</g>
</g>
</svg>
