<svg id="Livello_1" data-name="Livello 1" xmlns="http://www.w3.org/2000/svg" viewBox="0 0 588.29 129.97"><defs><style>.cls-1{fill:#fff;}.cls-2{fill:#601438;}.cls-3{fill:#6f9cbf;}</style></defs><title>logo_wanu</title><path class="cls-1" d="M349,620.54h-1.19c-1.93,0-4.35.94-5,5.41v34c0,12.34-4.34,21.65-12.91,27.64l-.09.07a29.35,29.35,0,0,1-13.06,6v-29c0-5.57-2.53-6.74-4.65-6.74h-1.79c-3.85,0-4.66,3.66-4.66,6.74v29l-2.77-.6c-15.67-5.63-23.28-16.18-23.28-32.24V626c-.6-4.47-3-5.41-4.95-5.41h-1.19c-1.93,0-4.35.94-5,5.41v38.49c0,7.87,2.77,15.79,8.23,23.52l0,0c9.24,11.52,20.33,17.35,33,17.35h3c6.09,0,12.85-1.83,20.11-5.46l.13-.08c13.92-9.53,21-21.54,21-35.68V626C353.33,621.48,350.9,620.54,349,620.54Z" transform="translate(-82.01 -602.28)"/><path class="cls-1" d="M454,620h-.13c-3.17,0-5.14,1.93-5.54,5.43v8.38c-9-9.16-19.14-13.81-30.12-13.81h-2.38a44.5,44.5,0,0,0-19.51,4.87l-.1.06C381.44,634.21,374,646.62,374,661.76v2.38c0,7.16,2.26,14.45,6.7,21.68l.05.07c9.39,12.92,21,19.47,34.47,19.47h2.08c11.67,0,22.09-4.63,31-13.77v7.93c0,3.16,1.92,5.13,5.42,5.54h.13c3.17,0,5.13-1.93,5.54-5.43V625.5C459.39,622.33,457.46,620.36,454,620Zm-5.68,42.7A33.75,33.75,0,0,1,444,678.44c-7.08,10.5-16.16,15.82-27,15.82a33.05,33.05,0,0,1-15.5-4c-10.89-7-16.41-16.17-16.41-27.3a32.58,32.58,0,0,1,3.44-14.35c6.79-11.65,16.17-17.55,27.87-17.55,8.48,0,16.12,3.19,22.71,9.48C445.19,647.12,448.29,654.57,448.29,662.65Z" transform="translate(-82.01 -602.28)"/><path class="cls-1" d="M557.79,639.41c-9.29-12.52-20.78-18.87-34.17-18.87h-3c-7.36,0-15,2.45-22.87,7.3l-.11.07c-12.1,9.69-18.24,21-18.24,33.56V700c.59,4.47,3,5.4,4.94,5.4h1.19c1.93,0,4.35-.93,4.95-5.4V665a43.54,43.54,0,0,1,2.29-13.83c6.89-13,16.64-19.55,29-19.56a49.68,49.68,0,0,1,8.63,1.14c15.68,5.78,23.3,16.33,23.3,32.25V700c.6,4.47,3,5.4,5,5.4h1.19c1.93,0,4.35-.93,5-5.4V661.47c0-7.11-2.36-14.51-7-22Z" transform="translate(-82.01 -602.28)"/><path class="cls-1" d="M670.29,626c-.59-4.47-3-5.41-4.94-5.41h-1.19c-1.93,0-4.35.94-4.95,5.41v34c0,7.53-1.44,13.64-4.28,18.13-7,10.71-16.11,16.14-27,16.15a50.06,50.06,0,0,1-8.63-1.14c-15.68-5.63-23.3-16.18-23.3-32.25V626c-.6-4.47-3-5.41-5-5.41h-1.19c-1.93,0-4.35.94-5,5.41v38.49c0,7.87,2.77,15.79,8.23,23.52l0,0c9.24,11.52,20.33,17.35,33,17.35h3c6.09,0,12.85-1.83,20.11-5.46l.13-.08c13.92-9.53,21-21.54,21-35.68V626Z" transform="translate(-82.01 -602.28)"/><path class="cls-2" d="M564.85,670.39v30.66c-.6,4.47-3,5.41-5,5.41H558.7c-1.93,0-4.35-.94-5-5.41V670.39Z" transform="translate(-82.01 -602.28)"/><path class="cls-2" d="M316.77,693.72v-29c0-5.57-2.53-6.74-4.65-6.74h-1.79c-3.85,0-4.66,3.66-4.66,6.74v29A26.62,26.62,0,0,0,316.77,693.72Z" transform="translate(-82.01 -602.28)"/><path class="cls-2" d="M398.75,636.73a28.86,28.86,0,0,1,17.63-5.68,31,31,0,0,1,15.17,3.89l8.26-8.26a38.55,38.55,0,0,0-21.64-6.74h-2.38a44.5,44.5,0,0,0-19.51,4.87l-.1.06a65.52,65.52,0,0,0-5.44,3.85Z" transform="translate(-82.01 -602.28)"/><path class="cls-2" d="M659.2,656V625.35c.6-4.47,3-5.41,4.95-5.41h1.19c1.93,0,4.35.94,4.94,5.41V656Z" transform="translate(-82.01 -602.28)"/><path class="cls-1" d="M91.1,691.2l159.8,40.65c9.61,2.44,18-6.66,14.45-15.62L222.73,609.81a12.35,12.35,0,0,0-17.48-5.93L88.07,669.66A11.62,11.62,0,0,0,91.1,691.2Z" transform="translate(-82.01 -602.28)"/><path class="cls-3" d="M115.08,681.05l114.4,36.46c6.88,2.2,13.43-4.06,11.24-10.73l-26.09-79.27a9,9,0,0,0-12.45-5.07l-88.3,42.8A8.47,8.47,0,0,0,115.08,681.05Z" transform="translate(-82.01 -602.28)"/><path class="cls-2" d="M212,647.09c-.53-8.31-9.77-13.32-17.39-9.42l-45,23A11.29,11.29,0,0,0,151,681.49L198.54,699c8.05,3,16.58-3.09,16.05-11.4Z" transform="translate(-82.01 -602.28)"/></svg>