<?xml version="1.0" encoding="iso-8859-1"?>
<!-- Generator: Adobe Illustrator 19.0.0, SVG Export Plug-In . SVG Version: 6.00 Build 0)  -->
<svg version="1.1" id="Capa_1" xmlns="http://www.w3.org/2000/svg" xmlns:xlink="http://www.w3.org/1999/xlink" x="0px" y="0px"
	 viewBox="0 0 512 512" style="enable-background:new 0 0;fill:#94d1ff;" xml:space="preserve">
<g>
	<g>
		<path d="M466,0H196c-7.693,0-14.319,5.923-14.94,13.809c-0.023,0.287-0.037,0.573-0.043,0.859C181.014,14.78,181,14.888,181,15v75
			H46c-8.284,0-15,6.716-15,15v392c0,8.284,6.716,15,15,15h270c8.284,0,15-6.716,15-15v-77h135c8.284,0,15-6.716,15-15V15
			C481,6.716,474.284,0,466,0z M211,45l60,45h-60V45z M301,482H61V120h240V482z M451,390H331v-30h75c8.284,0,15-6.716,15-15
			s-6.716-15-15-15h-75v-30h75c8.284,0,15-6.716,15-15s-6.716-15-15-15h-75v-30h75c8.284,0,15-6.716,15-15s-6.716-15-15-15h-75v-30
			h75c8.284,0,15-6.716,15-15s-6.716-15-15-15h-75v-45c0-0.106-0.014-0.208-0.016-0.314c-0.095-4.394-2.107-8.632-5.741-11.484
			C325.16,93.137,325.085,93.064,325,93l-84-63h210V390z"/>
	</g>
</g>
<g>
	<g>
		<path d="M256,240h-15c0-27.906-19.151-51.424-45-58.101V165c0-8.284-6.716-15-15-15s-15,6.716-15,15v16.899
			c-25.849,6.677-45,30.195-45,58.101h-15c-8.284,0-15,6.716-15,15s6.716,15,15,15c14.277,0,132.3,0,150,0c8.284,0,15-6.716,15-15
			S264.284,240,256,240z M151,240c0-16.542,13.458-30,30-30s30,13.458,30,30H151z"/>
	</g>
</g>
<g>
	<g>
		<path d="M256,330H106c-8.284,0-15,6.716-15,15s6.716,15,15,15h150c8.284,0,15-6.716,15-15S264.284,330,256,330z"/>
	</g>
</g>
<g>
	<g>
		<path d="M256,390H106c-8.284,0-15,6.716-15,15s6.716,15,15,15h150c8.284,0,15-6.716,15-15S264.284,390,256,390z"/>
	</g>
</g>
<g>
</g>
<g>
</g>
<g>
</g>
<g>
</g>
<g>
</g>
<g>
</g>
<g>
</g>
<g>
</g>
<g>
</g>
<g>
</g>
<g>
</g>
<g>
</g>
<g>
</g>
<g>
</g>
<g>
</g>
</svg>
