<?xml version="1.0" encoding="utf-8"?>
<!-- Generator: Adobe Illustrator 22.1.0, SVG Export Plug-In . SVG Version: 6.00 Build 0)  -->
<svg version="1.1" id="Capa_1" xmlns="http://www.w3.org/2000/svg" xmlns:xlink="http://www.w3.org/1999/xlink" x="0px" y="0px"
	 viewBox="0 0 512 512" style="enable-background:new 0 0 512 512;" xml:space="preserve">
<style type="text/css">
	.st0{fill:#94D1FF;}
</style>
<g>
	<g>
		<path class="st0" d="M458.7,422.2l-22.9-288.1c-1.4-18.6-17.1-33.1-35.7-33.1H355v-2c0-54.6-44.4-99-99-99s-99,44.4-99,99v2h-45.2
			c-18.6,0-34.3,14.5-35.7,33.1L53.3,422.3c-1.8,23.1,6.2,46,22,63s38,26.7,61.2,26.7h239.2c23.1,0,45.4-9.7,61.2-26.7
			C452.5,468.3,460.5,445.3,458.7,422.2z M187,99c0-38,30.9-69,69-69s69,30.9,69,69v2H187V99z M414.8,464.9
			c-10.2,11-24.1,17.1-39.2,17.1H136.4c-15,0-28.9-6.1-39.2-17.1c-10.2-11-15.2-25.4-14.1-40.3L106,136.4c0.2-3,2.8-5.4,5.8-5.4H157
			v36.9c0,8.3,6.7,15,15,15c8.3,0,15-6.7,15-15V131h138v36.9c0,8.3,6.7,15,15,15s15-6.7,15-15V131h45.2c3,0,5.6,2.4,5.8,5.4
			l22.9,288.1C430,439.5,425,453.9,414.8,464.9z"/>
	</g>
</g>
</svg>
