<?xml version="1.0" encoding="utf-8"?>
<!-- Generator: Adobe Illustrator 22.1.0, SVG Export Plug-In . SVG Version: 6.00 Build 0)  -->
<svg version="1.1" id="Capa_1" xmlns="http://www.w3.org/2000/svg" xmlns:xlink="http://www.w3.org/1999/xlink" x="0px" y="0px"
	 viewBox="0 0 512 512" style="enable-background:new 0 0 512 512;" xml:space="preserve">
<style type="text/css">
	.st0{fill:#94D1FF;}
</style>
<g>
	<g>
		<path class="st0" d="M328.6,275.3c-5.9-5.9-15.3-5.9-21.2,0l-67,67l-25.7-25.7c-5.9-5.9-15.4-5.9-21.2,0c-5.9,5.9-5.9,15.4,0,21.2
			l36.3,36.3c2.9,2.9,6.8,4.4,10.6,4.4s7.7-1.5,10.6-4.4l77.6-77.6C334.4,290.6,334.4,281.1,328.6,275.3z"/>
	</g>
</g>
<path class="st0" d="M468.8,187.6c-31.7-67.3-61.8-84.2-81.5-86.6l-0.9-0.1h-31.6v-6.8C352.3,41.7,308.9,0,256,0
	c-54.6,0-99,44.4-99,99v1.9h-40.2L116,101c-19.7,2.4-49.8,19.3-81.5,86.6C14.6,230,1.5,277.7,1.9,306.3
	c0.8,53.8,21.9,119.9,50.2,157.4c29.5,39.1,68.9,47.6,81.6,47.6h117.5h1h117.5c12.7,0,52.1-8.6,81.6-47.6
	c28.3-37.4,49.4-103.6,50.2-157.4C501.8,277.7,488.7,230,468.8,187.6z M187,99c0-38,30.9-69,69-69c38.1,0,69,30.9,69,69v1.9h-72.9
	h-1H187V99z M428.1,446.2c-25.7,34-58.2,36.1-58.5,36.1H252.1h-1H133.7c-0.3,0-32.8-2.1-58.5-36.1c-24.6-32.5-43.6-92.8-44.3-140.3
	c-0.4-23.9,12.2-68.4,29.9-105.9c19.1-40.7,41.2-67.4,57.9-70H157v1.1v16.4v20.5c0,8.3,6.7,15,15,15s15-6.7,15-15V131h138v36.9
	c0,8.3,6.7,15,15,15s15-6.7,15-15v-21.3h-0.1v-16.7h29.7c16.7,2.7,38.8,29.4,57.9,70c17.7,37.5,30.2,82.1,29.9,105.9
	C471.7,353.4,452.7,413.7,428.1,446.2z"/>
</svg>
